<mxfile host="Electron" agent="Mozilla/5.0 (Windows NT 10.0; Win64; x64) AppleWebKit/537.36 (KHTML, like Gecko) draw.io/24.7.17 Chrome/128.0.6613.36 Electron/32.0.1 Safari/537.36" version="24.7.17">
  <diagram name="Page-1" id="o2BZe6fk6UMN97w6RB0K">
    <mxGraphModel dx="1050" dy="621" grid="1" gridSize="10" guides="1" tooltips="1" connect="1" arrows="1" fold="1" page="1" pageScale="1" pageWidth="850" pageHeight="1100" math="0" shadow="0">
      <root>
        <mxCell id="0" />
        <mxCell id="1" parent="0" />
        <mxCell id="Opr4f2GL-v2wjJ_5QLKo-3" style="edgeStyle=orthogonalEdgeStyle;rounded=0;orthogonalLoop=1;jettySize=auto;html=1;entryX=0;entryY=0.5;entryDx=0;entryDy=0;" edge="1" parent="1" source="Opr4f2GL-v2wjJ_5QLKo-1" target="Opr4f2GL-v2wjJ_5QLKo-2">
          <mxGeometry relative="1" as="geometry" />
        </mxCell>
        <mxCell id="Opr4f2GL-v2wjJ_5QLKo-1" value="start" style="strokeWidth=2;html=1;shape=mxgraph.flowchart.terminator;whiteSpace=wrap;" vertex="1" parent="1">
          <mxGeometry x="60" y="30" width="100" height="60" as="geometry" />
        </mxCell>
        <mxCell id="Opr4f2GL-v2wjJ_5QLKo-5" style="edgeStyle=orthogonalEdgeStyle;rounded=0;orthogonalLoop=1;jettySize=auto;html=1;" edge="1" parent="1" source="Opr4f2GL-v2wjJ_5QLKo-2" target="Opr4f2GL-v2wjJ_5QLKo-4">
          <mxGeometry relative="1" as="geometry" />
        </mxCell>
        <mxCell id="Opr4f2GL-v2wjJ_5QLKo-2" value="input totalHours" style="shape=parallelogram;html=1;strokeWidth=2;perimeter=parallelogramPerimeter;whiteSpace=wrap;rounded=1;arcSize=12;size=0.23;" vertex="1" parent="1">
          <mxGeometry x="230" y="30" width="160" height="60" as="geometry" />
        </mxCell>
        <mxCell id="Opr4f2GL-v2wjJ_5QLKo-10" style="edgeStyle=orthogonalEdgeStyle;rounded=0;orthogonalLoop=1;jettySize=auto;html=1;" edge="1" parent="1" source="Opr4f2GL-v2wjJ_5QLKo-4">
          <mxGeometry relative="1" as="geometry">
            <mxPoint x="720" y="110" as="targetPoint" />
          </mxGeometry>
        </mxCell>
        <mxCell id="Opr4f2GL-v2wjJ_5QLKo-4" value="input materialCost" style="shape=parallelogram;html=1;strokeWidth=2;perimeter=parallelogramPerimeter;whiteSpace=wrap;rounded=1;arcSize=12;size=0.23;" vertex="1" parent="1">
          <mxGeometry x="460" y="30" width="150" height="60" as="geometry" />
        </mxCell>
        <mxCell id="Opr4f2GL-v2wjJ_5QLKo-14" style="edgeStyle=orthogonalEdgeStyle;rounded=0;orthogonalLoop=1;jettySize=auto;html=1;" edge="1" parent="1" source="Opr4f2GL-v2wjJ_5QLKo-9" target="Opr4f2GL-v2wjJ_5QLKo-12">
          <mxGeometry relative="1" as="geometry" />
        </mxCell>
        <mxCell id="Opr4f2GL-v2wjJ_5QLKo-9" value="totalCost = (totalHours * 30) + ((matericalCost&amp;nbsp; * 1.2) + matericalCost)" style="shape=process;whiteSpace=wrap;html=1;backgroundOutline=1;" vertex="1" parent="1">
          <mxGeometry x="600" y="120" width="220" height="70" as="geometry" />
        </mxCell>
        <mxCell id="Opr4f2GL-v2wjJ_5QLKo-12" value="print totalCost" style="shape=parallelogram;html=1;strokeWidth=2;perimeter=parallelogramPerimeter;whiteSpace=wrap;rounded=1;arcSize=12;size=0.23;" vertex="1" parent="1">
          <mxGeometry x="390" y="125" width="150" height="60" as="geometry" />
        </mxCell>
        <mxCell id="Opr4f2GL-v2wjJ_5QLKo-15" value="stop" style="strokeWidth=2;html=1;shape=mxgraph.flowchart.terminator;whiteSpace=wrap;" vertex="1" parent="1">
          <mxGeometry x="210" y="125" width="100" height="60" as="geometry" />
        </mxCell>
        <mxCell id="Opr4f2GL-v2wjJ_5QLKo-16" style="edgeStyle=orthogonalEdgeStyle;rounded=0;orthogonalLoop=1;jettySize=auto;html=1;entryX=1;entryY=0.5;entryDx=0;entryDy=0;entryPerimeter=0;" edge="1" parent="1" source="Opr4f2GL-v2wjJ_5QLKo-12" target="Opr4f2GL-v2wjJ_5QLKo-15">
          <mxGeometry relative="1" as="geometry" />
        </mxCell>
      </root>
    </mxGraphModel>
  </diagram>
</mxfile>
